<?xml version="1.0" standalone="no"?>
<!DOCTYPE svg PUBLIC "-//W3C//DTD SVG 20010904//EN"
 "http://www.w3.org/TR/2001/REC-SVG-20010904/DTD/svg10.dtd">
<svg version="1.0" xmlns="http://www.w3.org/2000/svg"
 width="800.000000pt" height="800.000000pt" viewBox="0 0 800.000000 800.000000"
 preserveAspectRatio="xMidYMid meet">
<metadata>
Created by potrace 1.14, written by Peter Selinger 2001-2017
</metadata>
<g transform="translate(0.000000,800.000000) scale(0.100000,-0.100000)"
fill="#000000" stroke="none">
<path d="M0 4000 l0 -4001 2022 1 c1401 1 2027 5 2035 12 9 7 17 7 26 0 17
-14 241 -16 232 -2 -4 6 5 10 24 10 16 0 33 -4 36 -10 9 -15 218 -13 233 2 9
9 12 9 12 0 0 -9 68 -12 290 -11 239 1 290 4 290 15 0 19 44 18 60 -1 12 -14
16 -13 37 6 l23 23 30 -22 c35 -26 43 -27 60 -7 16 19 50 19 50 0 0 -21 50
-19 65 2 11 15 15 15 36 2 28 -17 72 -17 112 -1 38 16 62 15 77 -3 11 -13 15
-13 33 0 28 20 56 19 80 -2 18 -17 19 -17 28 0 12 21 48 23 55 2 7 -17 111
-19 132 -3 8 7 12 7 12 -1 0 -15 60 -14 66 2 6 17 126 17 132 0 5 -18 49 -16
56 2 7 19 35 19 42 0 8 -20 24 -19 39 2 12 16 14 16 38 0 35 -23 147 -24 147
-2 0 8 5 15 10 15 6 0 13 -7 16 -15 8 -19 30 -19 37 -1 8 21 133 18 170 -3 26
-15 29 -15 38 1 12 22 32 23 49 3 17 -21 116 -21 124 0 7 19 52 19 60 0 6 -16
61 -21 70 -6 4 5 29 12 58 16 41 6 54 4 63 -9 15 -20 121 -20 129 1 7 18 35
17 42 -2 5 -13 44 -15 265 -15 l259 0 0 4000 0 4000 -890 0 -890 0 0 -760 c0
-468 -4 -760 -9 -760 -6 0 -13 4 -16 10 -3 6 -32 0 -72 -15 -36 -14 -69 -25
-74 -25 -5 0 -10 342 -12 778 l-2 777 -3 -781 c-2 -734 -3 -782 -19 -789 -80
-31 -256 -95 -263 -95 -6 0 -10 311 -10 830 l0 830 -1710 0 -1710 0 0 -826 c0
-657 -3 -825 -12 -822 -7 3 -73 27 -145 53 l-133 48 -2 776 -3 776 -2 -772
c-2 -425 -4 -773 -6 -773 -2 0 -40 13 -84 29 -44 17 -83 27 -87 24 -3 -4 -6
330 -6 740 l0 747 -920 0 -920 0 0 -4000z m6905 3960 c3 -5 1 -10 -4 -10 -6 0
-11 5 -11 10 0 6 2 10 4 10 3 0 8 -4 11 -10z m135 0 c0 -5 -5 -10 -11 -10 -5
0 -7 5 -4 10 3 6 8 10 11 10 2 0 4 -4 4 -10z m125 0 c-3 -5 -15 -10 -26 -10
-10 0 -19 5 -19 10 0 6 12 10 26 10 14 0 23 -4 19 -10z m190 0 c3 -5 -1 -10
-9 -10 -9 0 -16 5 -16 10 0 6 4 10 9 10 6 0 13 -4 16 -10z m380 0 c3 -5 1 -10
-4 -10 -6 0 -11 5 -11 10 0 6 2 10 4 10 3 0 8 -4 11 -10z m-7475 -10 c0 -5 -4
-10 -10 -10 -5 0 -10 5 -10 10 0 6 5 10 10 10 6 0 10 -4 10 -10z m4325 -110
c3 -5 1 -10 -4 -10 -6 0 -11 5 -11 10 0 6 2 10 4 10 3 0 8 -4 11 -10z m645 0
c0 -5 -9 -10 -20 -10 -11 0 -20 5 -20 10 0 6 9 10 20 10 11 0 20 -4 20 -10z
m2470 1 c0 -14 -18 -23 -30 -16 -6 4 -8 11 -5 16 8 12 35 12 35 0z m-7341 -80
c12 -8 12 -12 2 -25 -15 -18 -21 -19 -40 -7 -12 8 -12 12 -2 25 15 18 21 19
40 7z m279 -8 c-4 -20 -45 -30 -60 -15 -16 16 1 32 33 32 24 0 30 -4 27 -17z
m66 2 c19 -15 14 -35 -9 -35 -13 0 -35 29 -35 44 0 11 25 6 44 -9z m642 0 c16
-13 17 -16 4 -25 -21 -13 -97 -13 -106 2 -10 15 24 38 56 38 14 0 35 -7 46
-15z m-1061 -15 c0 -18 -43 -26 -57 -12 -16 16 2 33 30 30 16 -2 27 -9 27 -18z
m229 -1 c-3 -5 -10 -7 -15 -3 -5 3 -7 10 -3 15 3 5 10 7 15 3 5 -3 7 -10 3
-15z m302 10 c8 -14 -14 -29 -43 -29 -25 0 -29 10 -11 28 15 15 45 16 54 1z
m100 1 c14 0 22 -4 19 -10 -3 -5 -22 -10 -41 -10 -25 0 -34 4 -34 16 0 11 5
14 16 10 9 -3 27 -6 40 -6z m94 -5 c0 -8 -9 -15 -20 -15 -20 0 -26 11 -13 23
12 13 33 7 33 -8z m110 1 c0 -20 -27 -39 -45 -32 -8 3 -15 15 -15 26 0 16 7
20 30 20 19 0 30 -5 30 -14z m103 7 c10 -10 -13 -33 -33 -33 -20 0 -43 23 -33
33 3 4 18 7 33 7 15 0 30 -3 33 -7z m212 -13 c0 -8 -7 -16 -15 -17 -22 -4 -44
13 -35 26 10 17 50 9 50 -9z m-1231 1 c4 -5 1 -11 -6 -13 -18 -6 -58 3 -58 13
0 12 57 12 64 0z m6135 -27 c2 -2 2 -7 -2 -10 -8 -9 -47 6 -47 17 0 9 37 3 49
-7z m-6076 -85 c-8 -8 -14 -6 -22 9 -13 25 -2 37 18 17 11 -11 12 -18 4 -26z
m-175 14 c5 -17 -26 -29 -40 -15 -6 6 -7 15 -3 22 9 14 37 9 43 -7z m97 -2 c0
-8 -8 -19 -17 -25 -22 -13 -44 5 -34 29 7 20 51 16 51 -4z m165 4 c0 -8 -7
-15 -15 -15 -16 0 -20 12 -8 23 11 12 23 8 23 -8z m170 0 c10 -12 9 -16 -5
-21 -19 -8 -40 9 -31 25 10 15 21 14 36 -4z m105 -5 c0 -16 -45 -26 -72 -16
-13 5 -13 9 -2 22 16 19 74 15 74 -6z m98 8 c11 -34 -16 -48 -54 -27 -16 8
-18 13 -8 25 14 17 56 19 62 2z m157 -11 c0 -15 -5 -18 -25 -13 -14 4 -34 1
-45 -6 -15 -9 -22 -10 -31 -1 -23 23 -3 38 50 39 44 0 51 -2 51 -19z m105 3
c0 -8 -10 -16 -22 -18 -18 -3 -23 2 -23 18 0 16 5 21 23 18 12 -2 22 -10 22
-18z m265 0 c0 -15 -7 -20 -24 -20 -29 0 -44 19 -25 31 25 16 49 10 49 -11z
m78 3 c-5 -26 -38 -29 -38 -4 0 15 6 21 21 21 14 0 19 -5 17 -17z m-898 -3 c0
-5 -4 -10 -10 -10 -5 0 -10 5 -10 10 0 6 5 10 10 10 6 0 10 -4 10 -10z m650 0
c0 -6 -7 -13 -15 -16 -20 -8 -48 3 -40 16 8 13 55 13 55 0z m5375 -40 c3 -5
-1 -10 -10 -10 -9 0 -13 5 -10 10 3 6 8 10 10 10 2 0 7 -4 10 -10z m110 -10
c-3 -5 -13 -6 -21 -3 -12 4 -13 8 -3 14 15 9 32 2 24 -11z m350 10 c3 -5 -1
-10 -10 -10 -9 0 -13 5 -10 10 3 6 8 10 10 10 2 0 7 -4 10 -10z m490 0 c3 -5
2 -10 -4 -10 -5 0 -13 5 -16 10 -3 6 -2 10 4 10 5 0 13 -4 16 -10z m-7245
-170 c0 -5 -5 -10 -11 -10 -5 0 -7 5 -4 10 3 6 8 10 11 10 2 0 4 -4 4 -10z
m775 -310 c3 -5 -1 -10 -10 -10 -9 0 -13 5 -10 10 3 6 8 10 10 10 2 0 7 -4 10
-10z m-365 -110 c0 -5 -4 -10 -10 -10 -5 0 -10 5 -10 10 0 6 5 10 10 10 6 0
10 -4 10 -10z m-365 -100 c3 -5 1 -10 -4 -10 -6 0 -11 5 -11 10 0 6 2 10 4 10
3 0 8 -4 11 -10z m6065 -34 c0 -2 -7 -6 -15 -10 -8 -3 -15 -1 -15 4 0 6 7 10
15 10 8 0 15 -2 15 -4z m320 -6 c0 -5 -4 -10 -10 -10 -5 0 -10 5 -10 10 0 6 5
10 10 10 6 0 10 -4 10 -10z m1110 0 c0 -5 -7 -10 -15 -10 -8 0 -15 5 -15 10 0
6 7 10 15 10 8 0 15 -4 15 -10z m-7420 -170 c0 -5 -4 -10 -10 -10 -5 0 -10 5
-10 10 0 6 5 10 10 10 6 0 10 -4 10 -10z m270 0 c0 -5 -6 -10 -14 -10 -8 0
-18 5 -21 10 -3 6 3 10 14 10 12 0 21 -4 21 -10z m280 0 c0 -5 -4 -10 -10 -10
-5 0 -10 5 -10 10 0 6 5 10 10 10 6 0 10 -4 10 -10z m-585 -100 c4 -6 -5 -10
-19 -10 -14 0 -26 5 -26 10 0 6 9 10 19 10 11 0 23 -4 26 -10z m862 -6 c-3 -3
-12 -4 -19 -1 -8 3 -5 6 6 6 11 1 17 -2 13 -5z m5443 -84 c0 -5 -4 -10 -10
-10 -5 0 -10 5 -10 10 0 6 5 10 10 10 6 0 10 -4 10 -10z m995 0 c4 -6 -7 -10
-24 -10 -17 0 -31 5 -31 10 0 6 11 10 24 10 14 0 28 -4 31 -10z m155 0 c0 -5
-7 -10 -15 -10 -8 0 -15 5 -15 10 0 6 7 10 15 10 8 0 15 -4 15 -10z m135 0 c3
-5 1 -10 -4 -10 -6 0 -11 5 -11 10 0 6 2 10 4 10 3 0 8 -4 11 -10z m-7584 -19
c-8 -5 -20 -7 -28 -4 -21 8 -15 13 15 13 20 0 23 -3 13 -9z m155 0 c-3 -5 -15
-7 -26 -4 -28 7 -25 13 6 13 14 0 23 -4 20 -9z m454 -1 c0 -5 -4 -10 -10 -10
-5 0 -10 5 -10 10 0 6 5 10 10 10 6 0 10 -4 10 -10z m215 0 c-3 -5 -12 -7 -20
-3 -21 7 -19 13 6 13 11 0 18 -4 14 -10z m158 -1 c-8 -8 -16 -8 -30 0 -16 9
-14 10 12 11 21 0 26 -3 18 -11z m1222 -209 l510 -189 3 -1191 c2 -947 0
-1191 -10 -1195 -7 -2 -255 -33 -550 -67 l-538 -64 0 598 c0 329 3 598 8 598
4 -1 177 -38 385 -84 l378 -83 -3 81 -3 80 -382 94 -383 94 0 118 0 118 88
-19 c48 -11 218 -48 377 -83 l290 -63 3 75 c2 41 1 77 -2 79 -3 3 -172 47
-376 98 -204 51 -373 95 -376 98 -3 2 -3 51 -2 109 l3 104 375 -81 375 -82 3
75 c2 41 0 77 -3 80 -2 3 -173 46 -377 97 l-373 91 -3 366 -2 366 37 -14 c21
-8 268 -100 548 -204z m-605 -153 c0 -329 -1 -353 -17 -353 -10 0 -105 -66
-210 -148 l-193 -148 0 -69 c0 -38 2 -69 5 -69 3 0 93 59 200 131 107 71 200
127 205 124 6 -3 10 -52 10 -111 0 -82 -3 -104 -14 -104 -7 0 -102 -68 -210
-150 l-196 -151 0 -69 c0 -39 2 -70 5 -70 3 0 93 59 199 131 107 73 199 129
205 125 17 -11 15 -232 -2 -239 -8 -3 -100 -71 -205 -152 l-192 -147 0 -69 c0
-38 2 -69 5 -69 3 0 93 59 200 130 107 71 197 130 200 130 3 0 5 -270 5 -600
0 -330 -3 -600 -7 -600 -5 1 -143 49 -308 109 l-300 108 -3 999 -2 999 306
343 c168 188 308 342 310 342 2 0 4 -159 4 -353z m4330 -16 l0 -369 -400 -98
-400 -99 0 -77 c0 -43 4 -78 10 -78 8 0 699 149 768 165 l23 6 -3 -113 -3
-112 -388 -97 c-214 -53 -390 -99 -393 -102 -3 -2 -4 -38 -2 -79 l3 -75 380
83 c209 46 386 84 393 84 9 0 12 -27 12 -105 l0 -104 -36 -10 c-20 -5 -198
-50 -395 -98 l-359 -88 0 -77 c0 -43 4 -78 9 -78 5 0 174 36 376 80 202 44
375 80 386 80 19 0 19 -16 19 -595 0 -560 -1 -595 -17 -595 -10 0 -258 28
-551 62 l-532 63 2 1195 3 1194 540 202 c297 111 543 202 548 203 4 1 7 -165
7 -368z m329 7 l301 -337 -2 -1002 -3 -1003 -300 -108 c-165 -59 -303 -108
-307 -108 -5 0 -8 268 -8 596 0 514 2 595 14 591 8 -3 96 -60 195 -127 l181
-120 0 72 0 73 -195 149 -195 149 0 105 c0 81 3 103 13 99 7 -3 93 -59 192
-126 98 -66 182 -121 187 -121 4 0 8 31 8 68 l0 68 -200 153 -200 153 0 104
c0 57 2 104 5 104 3 0 85 -53 183 -118 97 -65 183 -122 190 -126 10 -6 12 8
10 65 l-3 73 -190 146 -190 146 -3 363 c-1 202 2 361 6 359 5 -1 145 -155 311
-340z m-5569 272 c0 -5 -9 -10 -20 -10 -11 0 -20 5 -20 10 0 6 9 10 20 10 11
0 20 -4 20 -10z m4760 6 c0 -3 -4 -8 -10 -11 -5 -3 -10 -1 -10 4 0 6 5 11 10
11 6 0 10 -2 10 -4z m624 -2 c9 -3 16 -10 16 -15 0 -14 -26 -10 -40 6 -13 16
-3 20 24 9z m546 -4 c0 -5 -5 -10 -11 -10 -5 0 -7 5 -4 10 3 6 8 10 11 10 2 0
4 -4 4 -10z m650 0 c0 -5 -5 -10 -11 -10 -5 0 -7 5 -4 10 3 6 8 10 11 10 2 0
4 -4 4 -10z m150 0 c0 -5 -5 -10 -11 -10 -5 0 -7 5 -4 10 3 6 8 10 11 10 2 0
4 -4 4 -10z m-7383 -6 c-3 -3 -12 -4 -19 -1 -8 3 -5 6 6 6 11 1 17 -2 13 -5z
m6173 -114 c0 -5 -4 -10 -9 -10 -6 0 -13 5 -16 10 -3 6 1 10 9 10 9 0 16 -4
16 -10z m110 0 c0 -5 -6 -10 -14 -10 -8 0 -18 5 -21 10 -3 6 3 10 14 10 12 0
21 -4 21 -10z m350 0 c0 -5 -4 -10 -10 -10 -5 0 -10 5 -10 10 0 6 5 10 10 10
6 0 10 -4 10 -10z m490 0 c0 -5 -4 -10 -10 -10 -5 0 -10 5 -10 10 0 6 5 10 10
10 6 0 10 -4 10 -10z m-7270 -196 c0 -2 -9 -4 -21 -4 -11 0 -18 4 -14 10 5 8
35 3 35 -6z m340 -104 c0 -5 -4 -10 -10 -10 -5 0 -10 5 -10 10 0 6 5 10 10 10
6 0 10 -4 10 -10z m60 -310 c0 -5 -4 -10 -10 -10 -5 0 -10 5 -10 10 0 6 5 10
10 10 6 0 10 -4 10 -10z m540 0 c0 -5 -7 -10 -16 -10 -8 0 -12 5 -9 10 3 6 10
10 16 10 5 0 9 -4 9 -10z m-420 -110 c0 -5 -2 -10 -4 -10 -3 0 -8 5 -11 10 -3
6 -1 10 4 10 6 0 11 -4 11 -10z m225 -100 c3 -5 1 -10 -4 -10 -6 0 -11 5 -11
10 0 6 2 10 4 10 3 0 8 -4 11 -10z m285 0 c0 -5 -5 -10 -11 -10 -5 0 -7 5 -4
10 3 6 8 10 11 10 2 0 4 -4 4 -10z m6489 -26 c2 -2 2 -7 -2 -10 -10 -10 -58 6
-52 17 6 8 42 4 54 -7z m-634 -125 c12 -19 -2 -21 -32 -5 l-28 15 27 1 c15 0
30 -5 33 -11z m185 1 c0 -5 -4 -10 -10 -10 -5 0 -10 5 -10 10 0 6 5 10 10 10
6 0 10 -4 10 -10z m260 6 c0 -3 -4 -8 -10 -11 -5 -3 -10 -1 -10 4 0 6 5 11 10
11 6 0 10 -2 10 -4z m170 -6 c0 -5 -4 -10 -10 -10 -5 0 -10 5 -10 10 0 6 5 10
10 10 6 0 10 -4 10 -10z m-3160 -120 c0 -5 -4 -10 -9 -10 -6 0 -13 5 -16 10
-3 6 1 10 9 10 9 0 16 -4 16 -10z m2680 0 c0 -5 -4 -10 -10 -10 -5 0 -10 5
-10 10 0 6 5 10 10 10 6 0 10 -4 10 -10z m260 -360 c0 -5 -4 -10 -10 -10 -5 0
-10 5 -10 10 0 6 5 10 10 10 6 0 10 -4 10 -10z m-6805 -200 c3 -5 -1 -10 -10
-10 -9 0 -13 5 -10 10 3 6 8 10 10 10 2 0 7 -4 10 -10z m210 0 c4 -6 -5 -10
-19 -10 -14 0 -26 5 -26 10 0 6 9 10 19 10 11 0 23 -4 26 -10z m102 -6 c-3 -3
-12 -4 -19 -1 -8 3 -5 6 6 6 11 1 17 -2 13 -5z m-647 -104 c0 -5 -7 -10 -15
-10 -8 0 -15 5 -15 10 0 6 7 10 15 10 8 0 15 -4 15 -10z m10 -100 c0 -5 -5
-10 -11 -10 -5 0 -7 5 -4 10 3 6 8 10 11 10 2 0 4 -4 4 -10z m155 0 c3 -5 -1
-10 -10 -10 -9 0 -13 5 -10 10 3 6 8 10 10 10 2 0 7 -4 10 -10z m605 -104 c0
-3 -4 -8 -10 -11 -5 -3 -10 -1 -10 4 0 6 5 11 10 11 6 0 10 -2 10 -4z m6018
-77 c-2 -6 -8 -10 -13 -10 -5 0 -11 4 -13 10 -2 6 4 11 13 11 9 0 15 -5 13
-11z m50 0 c-2 -6 -8 -10 -13 -10 -5 0 -11 4 -13 10 -2 6 4 11 13 11 9 0 15
-5 13 -11z m352 -10 c0 -5 -4 -9 -10 -9 -5 0 -10 7 -10 16 0 8 5 12 10 9 6 -3
10 -10 10 -16z m68 9 c-3 -7 -13 -13 -23 -13 -10 0 -20 6 -22 13 -3 7 5 12 22
12 17 0 25 -5 23 -12z m172 3 c0 -6 -5 -13 -10 -16 -15 -9 -43 3 -35 15 8 13
45 13 45 1z m90 -11 c0 -5 -5 -10 -11 -10 -5 0 -7 5 -4 10 3 6 8 10 11 10 2 0
4 -4 4 -10z m-6985 -20 c3 -5 1 -10 -4 -10 -6 0 -11 5 -11 10 0 6 2 10 4 10 3
0 8 -4 11 -10z m6440 -100 c3 -5 -1 -10 -9 -10 -8 0 -18 5 -21 10 -3 6 1 10 9
10 8 0 18 -4 21 -10z m-15 -120 c0 -5 -5 -10 -11 -10 -5 0 -7 5 -4 10 3 6 8
10 11 10 2 0 4 -4 4 -10z m-7110 -300 c0 -5 -5 -10 -11 -10 -5 0 -7 5 -4 10 3
6 8 10 11 10 2 0 4 -4 4 -10z m150 0 c0 -5 -7 -10 -15 -10 -8 0 -15 5 -15 10
0 6 7 10 15 10 8 0 15 -4 15 -10z m1095 0 c3 -5 -1 -10 -10 -10 -9 0 -13 5
-10 10 3 6 8 10 10 10 2 0 7 -4 10 -10z m6290 -59 c8 -14 -13 -24 -33 -16 -14
5 -14 7 -2 15 19 12 27 12 35 1z m-1098 -7 c-3 -3 -12 -4 -19 -1 -8 3 -5 6 6
6 11 1 17 -2 13 -5z m793 -115 c0 -24 -23 -21 -28 4 -2 10 3 17 12 17 10 0 16
-9 16 -21z m195 3 c0 -18 -20 -15 -23 4 -3 10 1 15 10 12 7 -3 13 -10 13 -16z
m-7425 -132 c0 -5 -5 -10 -11 -10 -5 0 -7 5 -4 10 3 6 8 10 11 10 2 0 4 -4 4
-10z m150 0 c0 -5 -7 -10 -16 -10 -8 0 -12 5 -9 10 3 6 10 10 16 10 5 0 9 -4
9 -10z m180 0 c0 -5 -14 -10 -31 -10 -17 0 -28 4 -24 10 3 6 17 10 31 10 13 0
24 -4 24 -10z m1305 0 c3 -5 -3 -10 -14 -10 -11 0 -23 5 -26 10 -3 6 3 10 14
10 11 0 23 -4 26 -10z m-348 -6 c-3 -3 -12 -4 -19 -1 -8 3 -5 6 6 6 11 1 17
-2 13 -5z m6014 -99 c0 -5 -9 -11 -21 -13 -20 -3 -27 8 -13 22 10 9 34 3 34
-9z m-7141 -5 c0 -5 -2 -10 -4 -10 -3 0 -8 5 -11 10 -3 6 -1 10 4 10 6 0 11
-4 11 -10z m160 6 c0 -3 -4 -8 -10 -11 -5 -3 -10 -1 -10 4 0 6 5 11 10 11 6 0
10 -2 10 -4z m1205 -6 c-3 -5 -15 -10 -26 -10 -11 0 -17 5 -14 10 3 6 15 10
26 10 11 0 17 -4 14 -10z m505 6 c0 -3 -4 -8 -10 -11 -5 -3 -10 -1 -10 4 0 6
5 11 10 11 6 0 10 -2 10 -4z m5210 -6 c0 -5 -7 -10 -15 -10 -8 0 -15 5 -15 10
0 6 7 10 15 10 8 0 15 -4 15 -10z m228 -6 c-9 -9 -21 -13 -27 -10 -20 13 -11
26 16 26 25 0 26 -1 11 -16z m-7038 -88 c0 -3 -4 -8 -10 -11 -5 -3 -10 -1 -10
4 0 6 5 11 10 11 6 0 10 -2 10 -4z m490 -6 c0 -5 -4 -10 -10 -10 -5 0 -10 5
-10 10 0 6 5 10 10 10 6 0 10 -4 10 -10z m365 0 c-3 -5 -13 -10 -21 -10 -8 0
-12 5 -9 10 3 6 13 10 21 10 8 0 12 -4 9 -10z m95 0 c0 -5 -4 -10 -10 -10 -5
0 -10 5 -10 10 0 6 5 10 10 10 6 0 10 -4 10 -10z m520 0 c0 -5 -5 -10 -11 -10
-5 0 -7 5 -4 10 3 6 8 10 11 10 2 0 4 -4 4 -10z m4285 -270 c-3 -5 -13 -10
-21 -10 -8 0 -14 5 -14 10 0 6 9 10 21 10 11 0 17 -4 14 -10z m320 0 c3 -5 -1
-10 -9 -10 -9 0 -16 5 -16 10 0 6 4 10 9 10 6 0 13 -4 16 -10z m190 0 c-3 -5
-12 -10 -20 -10 -8 0 -17 5 -20 10 -4 6 5 10 20 10 15 0 24 -4 20 -10z m495 0
c0 -5 -9 -10 -20 -10 -11 0 -20 5 -20 10 0 6 9 10 20 10 11 0 20 -4 20 -10z
m480 0 c0 -5 -2 -10 -4 -10 -3 0 -8 5 -11 10 -3 6 -1 10 4 10 6 0 11 -4 11
-10z m-7605 -40 c3 -5 1 -10 -4 -10 -6 0 -11 5 -11 10 0 6 2 10 4 10 3 0 8 -4
11 -10z m7130 -80 c-3 -5 -12 -10 -20 -10 -8 0 -17 5 -20 10 -4 6 5 10 20 10
15 0 24 -4 20 -10z m155 0 c0 -5 -9 -10 -20 -10 -11 0 -20 5 -20 10 0 6 9 10
20 10 11 0 20 -4 20 -10z m280 0 c0 -5 -4 -10 -10 -10 -5 0 -10 5 -10 10 0 6
5 10 10 10 6 0 10 -4 10 -10z m-5258 -105 c51 -14 101 -22 111 -19 10 3 26 -1
35 -9 9 -8 80 -32 157 -52 77 -19 150 -40 163 -45 l22 -10 0 -414 c0 -357 -2
-415 -15 -426 -12 -10 -120 -11 -518 -5 -435 6 -504 9 -519 22 -16 15 -18 40
-18 260 0 236 -1 243 -20 243 -11 0 -20 5 -20 10 0 6 9 10 20 10 19 0 20 7 20
149 0 82 3 156 6 165 5 14 90 44 354 124 87 27 112 26 222 -3z m-1075 -376
l248 -372 3 198 c2 152 -1 200 -10 207 -10 6 -10 8 0 8 9 0 12 40 12 166 l0
167 31 -7 c17 -3 47 -6 65 -6 l34 0 0 -480 0 -481 -72 3 -71 3 -244 364 -243
365 0 -351 0 -351 25 -6 c28 -7 33 -27 10 -46 -11 -9 -20 -8 -44 6 -25 15 -34
16 -56 6 -35 -16 -60 -15 -75 3 -10 12 -10 19 -2 27 9 9 12 138 12 474 l0 463
48 4 c26 2 55 4 64 5 13 2 86 -101 265 -369z m6043 361 c0 -5 -9 -10 -20 -10
-11 0 -20 5 -20 10 0 6 9 10 20 10 11 0 20 -4 20 -10z m310 0 c0 -5 -4 -10
-10 -10 -5 0 -10 5 -10 10 0 6 5 10 10 10 6 0 10 -4 10 -10z m-5840 -10 c0 -5
-9 -10 -20 -10 -11 0 -20 5 -20 10 0 6 9 10 20 10 11 0 20 -4 20 -10z m1730
-339 c0 -301 2 -350 15 -355 8 -3 15 -12 15 -20 0 -7 -7 -16 -15 -20 -12 -4
-15 -26 -15 -111 l0 -106 -57 3 c-58 3 -58 3 -61 36 l-3 33 -27 -27 c-39 -39
-83 -54 -160 -54 -85 0 -154 32 -212 97 -58 66 -82 138 -83 253 -4 233 107
373 293 374 70 0 115 -17 163 -62 l27 -26 0 167 0 167 60 0 60 0 0 -349z
m3140 209 l0 -120 60 0 60 0 0 -50 0 -50 -60 0 -60 0 0 -223 c0 -259 2 -267
75 -267 47 0 48 -2 58 -89 4 -35 -130 -39 -193 -6 -55 28 -60 56 -60 335 l0
250 -45 0 -45 0 0 50 0 50 45 0 45 0 0 88 0 87 53 32 c28 17 55 32 60 32 4 1
7 -53 7 -119z m-6470 -80 c0 -5 -11 -10 -25 -10 -14 0 -25 5 -25 10 0 6 11 10
25 10 14 0 25 -4 25 -10z m1310 0 c0 -5 -6 -10 -14 -10 -8 0 -18 5 -21 10 -3
6 3 10 14 10 12 0 21 -4 21 -10z m250 0 c0 -5 -4 -10 -10 -10 -5 0 -10 5 -10
10 0 6 5 10 10 10 6 0 10 -4 10 -10z m2377 -56 c105 -51 164 -147 171 -281 l5
-83 -258 0 -258 0 7 -41 c20 -125 117 -202 232 -184 39 5 57 16 91 50 40 40
56 75 33 75 -13 0 -13 27 1 36 6 3 18 -1 27 -10 15 -14 18 -14 38 5 25 24 51
20 61 -8 4 -10 11 -21 16 -25 14 -8 -17 -83 -53 -128 -106 -133 -387 -136
-497 -5 -15 16 -38 55 -52 85 -23 49 -26 67 -26 170 0 142 17 198 82 270 73
82 154 113 268 104 34 -3 82 -15 112 -30z m720 11 c57 -24 101 -65 128 -118
33 -67 32 -84 -5 -91 -91 -18 -83 -20 -104 29 -33 82 -120 115 -211 80 -82
-31 -119 -108 -119 -245 0 -132 33 -207 108 -241 53 -24 100 -24 152 1 48 24
66 47 85 109 l13 43 55 -6 c30 -4 57 -9 60 -12 9 -9 -20 -99 -45 -137 -31 -47
-95 -94 -148 -108 -62 -17 -193 -7 -241 18 -127 66 -190 223 -165 406 23 162
105 258 243 287 52 11 150 3 194 -15z m723 -13 c42 -20 61 -37 79 -70 22 -41
24 -56 30 -300 4 -171 11 -264 19 -279 7 -12 12 -24 12 -27 0 -3 -29 -6 -65
-6 l-64 0 -12 39 -11 38 -56 -34 c-72 -43 -110 -53 -202 -53 -147 1 -230 73
-230 201 0 64 29 121 80 158 46 33 83 43 239 66 63 9 125 21 139 26 23 9 24
13 18 56 -11 83 -68 118 -182 111 -76 -5 -111 -26 -139 -86 l-20 -43 -55 7
c-30 4 -57 8 -59 10 -8 7 19 81 42 115 68 101 300 139 437 71z m660 7 c62 -28
97 -64 116 -121 9 -27 14 -51 13 -52 -2 -2 -29 -7 -60 -10 l-57 -7 -18 38
c-24 48 -72 73 -142 73 -67 0 -117 -23 -132 -60 -24 -59 7 -81 175 -128 141
-39 176 -54 214 -92 34 -35 46 -78 39 -150 -6 -60 -37 -109 -92 -144 -59 -39
-109 -49 -216 -44 -110 5 -159 25 -209 85 -26 31 -67 130 -58 139 1 1 30 6 65
10 56 6 62 5 62 -12 0 -35 40 -85 83 -104 106 -48 240 -1 240 85 0 45 -33 65
-171 105 -161 46 -213 75 -241 133 -26 53 -26 99 -2 152 32 71 88 109 191 128
46 9 154 -4 200 -24z m-5420 -59 c-20 -13 -40 -13 -40 0 0 6 12 10 28 10 21 0
24 -2 12 -10z m-150 -100 c0 -5 -4 -10 -10 -10 -5 0 -10 5 -10 10 0 6 5 10 10
10 6 0 10 -4 10 -10z m700 0 c0 -5 -5 -10 -11 -10 -5 0 -7 5 -4 10 3 6 8 10
11 10 2 0 4 -4 4 -10z m2280 -299 c0 -11 -40 -22 -52 -15 -12 8 -10 32 5 37
14 5 47 -10 47 -22z m260 14 c10 -12 10 -18 0 -30 -15 -19 -21 -19 -45 -1 -16
12 -17 16 -6 30 17 20 35 20 51 1z m86 4 c10 -17 -13 -36 -27 -22 -12 12 -4
33 11 33 5 0 12 -5 16 -11z m90 0 c10 -17 -23 -46 -37 -32 -7 7 -9 19 -6 27 7
18 33 21 43 5z m-3418 -236 c5 -17 -26 -29 -40 -15 -6 6 -7 15 -3 22 9 14 37
9 43 -7z m80 0 c-2 -10 -10 -18 -18 -18 -8 0 -16 8 -18 18 -2 12 3 17 18 17
15 0 20 -5 18 -17z m103 6 c16 -8 18 -13 8 -25 -14 -18 -30 -18 -54 -1 -35 26
4 49 46 26z m319 -9 c0 -23 -20 -26 -53 -8 -21 11 -21 11 -2 19 36 14 55 10
55 -11z m200 6 c0 -18 -18 -24 -55 -16 l-30 7 25 11 c35 15 60 14 60 -2z m90
-6 c0 -27 -27 -37 -47 -17 -20 19 -9 37 23 37 17 0 24 -5 24 -20z m1991 -116
c14 -12 24 -13 56 -5 46 13 139 18 148 9 4 -3 2 -15 -3 -25 -9 -16 -23 -18
-121 -17 -88 0 -115 4 -128 16 -31 32 14 53 48 22z m759 -3 c0 -31 -20 -40
-74 -34 -92 11 -82 47 13 50 52 1 61 -1 61 -16z m-480 -13 c0 -18 -2 -20 -9
-8 -6 8 -7 18 -5 22 9 14 14 9 14 -14z m120 0 c10 -4 6 -9 -14 -17 -19 -8 -33
-8 -39 -2 -14 14 12 44 27 32 6 -4 18 -11 26 -13z m80 1 c0 -12 -29 -24 -37
-16 -3 4 -3 13 0 21 6 16 37 11 37 -5z m88 -7 c4 -28 -24 -40 -45 -19 -14 13
-14 19 -3 32 18 22 44 15 48 -13z m472 -112 c26 -16 4 -21 -26 -5 -23 12 -25
15 -9 15 11 0 27 -4 35 -10z m258 -9 c3 -8 -1 -12 -9 -9 -7 2 -15 10 -17 17
-3 8 1 12 9 9 7 -2 15 -10 17 -17z m392 -1 c0 -5 -4 -10 -10 -10 -5 0 -10 5
-10 10 0 6 5 10 10 10 6 0 10 -4 10 -10z m540 0 c0 -5 -4 -10 -10 -10 -5 0
-10 5 -10 10 0 6 5 10 10 10 6 0 10 -4 10 -10z m338 -1 c-2 -6 -8 -10 -13 -10
-5 0 -11 4 -13 10 -2 6 4 11 13 11 9 0 15 -5 13 -11z m192 1 c0 -5 -5 -10 -11
-10 -5 0 -7 5 -4 10 3 6 8 10 11 10 2 0 4 -4 4 -10z m-6080 -40 c8 -5 11 -12
8 -16 -10 -9 -38 3 -38 16 0 12 10 13 30 0z m184 1 c7 -11 -14 -20 -31 -13 -7
2 -13 8 -13 13 0 12 37 12 44 0z m401 -1 c3 -5 -1 -10 -9 -10 -9 0 -16 5 -16
10 0 6 4 10 9 10 6 0 13 -4 16 -10z m50 0 c3 -5 -3 -10 -15 -10 -12 0 -18 5
-15 10 3 6 10 10 15 10 5 0 12 -4 15 -10z m-405 -4 c0 -11 -19 -15 -25 -6 -3
5 1 10 9 10 9 0 16 -2 16 -4z m3348 -48 c19 -19 14 -35 -17 -48 -50 -20 -72
14 -29 44 27 19 31 19 46 4z m293 -4 c11 -14 10 -18 -6 -30 -33 -25 -54 -9
-35 26 13 24 23 25 41 4z m92 -30 c-7 -18 -27 -18 -42 0 -9 11 -8 18 5 31 17
16 18 16 30 0 7 -9 10 -23 7 -31z m295 15 c4 -31 -18 -43 -43 -25 -15 10 -16
16 -6 35 16 29 45 23 49 -10z m353 21 c10 -6 19 -17 19 -25 0 -14 -29 -35 -49
-35 -6 0 -16 10 -22 22 -10 18 -8 24 7 35 21 16 20 16 45 3z m483 -12 c16 -27
-14 -54 -43 -39 -24 13 -27 31 -9 49 16 16 38 12 52 -10z m85 8 c9 -11 8 -18
-4 -30 -9 -9 -21 -16 -26 -16 -16 0 -22 29 -9 45 15 19 24 19 39 1z m453 -7
c21 13 38 7 38 -15 0 -8 -9 -14 -21 -14 -12 0 -39 -5 -61 -12 -33 -10 -41 -9
-55 5 -15 15 -15 18 1 36 17 19 20 19 49 4 24 -12 35 -13 49 -4z m-2307 -9
l30 -20 -37 0 c-37 0 -54 12 -43 30 9 14 16 13 50 -10z m158 6 c7 -18 -1 -26
-25 -26 -20 0 -21 1 -12 24 8 20 30 21 37 2z m205 -9 c2 -12 -3 -17 -17 -17
-12 0 -21 6 -21 13 0 31 32 34 38 4z m672 8 c15 -19 -3 -45 -31 -45 -19 0 -35
33 -24 50 9 15 41 12 55 -5z m85 -11 c0 -13 -8 -20 -27 -22 -32 -4 -39 21 -10
37 23 14 37 8 37 -15z m275 6 c0 -24 -26 -38 -42 -22 -16 16 -2 42 22 42 13 0
20 -7 20 -20z m274 3 c8 -19 -8 -38 -23 -29 -16 10 -13 46 3 46 8 0 17 -8 20
-17z m410 1 c7 -19 -1 -34 -19 -34 -18 0 -28 17 -21 35 7 20 32 19 40 -1z
m367 6 c28 -15 24 -27 -12 -35 -35 -8 -55 5 -46 29 7 18 30 21 58 6z m276 -5
c3 -9 4 -18 1 -20 -2 -2 -39 -7 -82 -10 -44 -3 -83 -8 -87 -11 -15 -9 -10 23
6 36 9 7 29 10 52 6 21 -3 45 -2 53 4 22 15 50 12 57 -5z m268 -5 c25 -27 10
-38 -42 -32 -32 3 -43 8 -43 21 0 10 3 21 7 24 14 14 61 6 78 -13z m117 4 c27
-14 29 -18 14 -26 -19 -11 -72 -2 -82 14 -6 10 12 28 29 28 4 0 22 -7 39 -16z
m263 -9 c0 -22 -31 -31 -54 -16 -12 8 -13 12 -1 26 18 22 55 16 55 -10z
m-1865 0 c0 -9 -9 -15 -25 -15 -24 0 -32 10 -18 23 12 13 43 7 43 -8z m410 5
c0 -5 -2 -10 -4 -10 -3 0 -8 5 -11 10 -3 6 -1 10 4 10 6 0 11 -4 11 -10z m80
-11 c0 -5 -4 -9 -10 -9 -5 0 -10 7 -10 16 0 8 5 12 10 9 6 -3 10 -10 10 -16z
m798 4 c-4 -20 -18 -26 -37 -14 -18 12 -5 31 20 31 14 0 19 -6 17 -17z m480
-2 c3 -8 -1 -12 -9 -9 -7 2 -15 10 -17 17 -3 8 1 12 9 9 7 -2 15 -10 17 -17z
m172 4 c0 -8 -4 -15 -10 -15 -5 0 -10 7 -10 15 0 8 5 15 10 15 6 0 10 -7 10
-15z m-2000 -5 c0 -5 -4 -10 -10 -10 -5 0 -10 5 -10 10 0 6 5 10 10 10 6 0 10
-4 10 -10z m700 -11 c0 -5 -7 -9 -15 -9 -15 0 -20 12 -9 23 8 8 24 -1 24 -14z
m-5580 -29 c0 -5 -2 -10 -4 -10 -3 0 -8 5 -11 10 -3 6 -1 10 4 10 6 0 11 -4
11 -10z m550 0 c0 -5 -2 -10 -4 -10 -3 0 -8 5 -11 10 -3 6 -1 10 4 10 6 0 11
-4 11 -10z m2851 -190 c5 0 9 -4 9 -9 0 -12 -38 -2 -47 12 -4 7 0 8 11 4 10
-4 22 -7 27 -7z m1749 -20 c-16 -11 -40 -13 -40 -5 0 8 44 24 50 18 2 -2 -2
-8 -10 -13z m245 10 c3 -5 1 -10 -4 -10 -6 0 -11 5 -11 10 0 6 2 10 4 10 3 0
8 -4 11 -10z m215 0 c0 -5 -5 -10 -11 -10 -5 0 -7 5 -4 10 3 6 8 10 11 10 2 0
4 -4 4 -10z m-563 -6 c-3 -3 -12 -4 -19 -1 -8 3 -5 6 6 6 11 1 17 -2 13 -5z
m980 0 c-3 -3 -12 -4 -19 -1 -8 3 -5 6 6 6 11 1 17 -2 13 -5z m-397 -89 c9
-11 22 -14 41 -10 15 3 30 2 33 -4 5 -7 15 -7 31 -1 14 5 38 7 55 4 22 -5 31
-2 36 10 8 20 24 21 24 1 0 -8 -10 -20 -22 -26 -29 -16 -215 -21 -241 -8 -14
8 -23 6 -37 -6 -26 -24 -54 -15 -58 18 -3 22 1 27 17 27 12 0 30 -5 40 -12 15
-9 22 -8 36 5 20 21 29 21 45 2z m1057 -18 c-7 -21 -49 -37 -69 -26 -24 13
-19 30 12 46 27 13 64 0 57 -20z m-3217 2 c0 -5 -7 -9 -15 -9 -15 0 -20 12 -9
23 8 8 24 -1 24 -14z m2673 3 c21 -23 13 -32 -30 -32 -25 0 -33 4 -33 18 0 37
36 44 63 14z m267 -3 c0 -16 -31 -22 -43 -10 -9 9 -9 14 2 20 16 10 41 4 41
-10z m168 1 c11 -18 10 -20 -8 -20 -11 0 -20 2 -20 4 0 2 -3 11 -6 20 -9 23
19 20 34 -4z m182 0 c8 -16 6 -21 -11 -31 -27 -14 -44 1 -34 30 8 26 31 27 45
1z m-730 -9 c0 -23 -23 -34 -39 -18 -19 19 -12 37 14 37 18 0 25 -5 25 -19z
m188 -4 c2 -12 -3 -17 -17 -17 -12 0 -21 6 -21 13 0 31 32 34 38 4z m610 0 c2
-11 -3 -17 -16 -17 -24 0 -32 8 -25 26 7 20 37 13 41 -9z m68 12 c10 -17 -13
-36 -27 -22 -12 12 -4 33 11 33 5 0 12 -5 16 -11z m-3351 -8 c7 -12 -12 -24
-25 -16 -11 7 -4 25 10 25 5 0 11 -4 15 -9z m665 1 c0 -13 -12 -22 -22 -16
-10 6 -1 24 13 24 5 0 9 -4 9 -8z m634 -13 c-3 -5 -10 -7 -15 -3 -5 3 -7 10
-3 15 3 5 10 7 15 3 5 -3 7 -10 3 -15z m-1237 5 c-3 -3 -12 -4 -19 -1 -8 3 -5
6 6 6 11 1 17 -2 13 -5z m163 2 c0 -3 -4 -8 -10 -11 -5 -3 -10 -1 -10 4 0 6 5
11 10 11 6 0 10 -2 10 -4z m-3605 -86 c4 -6 -5 -10 -20 -10 -15 0 -24 4 -20
10 3 6 12 10 20 10 8 0 17 -4 20 -10z m4905 -26 c0 -17 -5 -24 -20 -24 -22 0
-27 29 -8 48 16 16 28 6 28 -24z m100 11 c20 -24 -8 -41 -57 -36 -16 1 -17 23
-1 39 17 17 43 15 58 -3z m101 -1 c11 -14 10 -18 -6 -30 -24 -18 -30 -18 -45
1 -10 12 -10 18 0 30 16 19 34 19 51 -1z m94 6 c7 -12 -12 -40 -26 -40 -5 0
-9 11 -9 25 0 25 23 35 35 15z m83 -18 c3 -18 -2 -22 -22 -22 -33 0 -44 20
-20 37 24 17 38 12 42 -15z m111 14 c20 -11 28 -11 51 2 23 13 31 14 43 3 27
-21 9 -44 -29 -37 -18 4 -35 2 -39 -4 -9 -14 -48 -12 -70 4 -16 12 -17 16 -6
30 16 19 19 19 50 2z m278 -2 c7 -19 -20 -49 -36 -40 -15 10 -14 43 2 49 21 9
27 7 34 -9z m118 -3 l34 -18 -25 -12 c-52 -23 -93 -1 -64 34 15 19 13 19 55
-4z m256 9 c10 -6 19 -17 19 -24 0 -14 -56 -30 -71 -20 -15 9 -10 32 9 43 21
13 20 13 43 1z m179 -5 c13 -16 6 -35 -15 -35 -18 0 -28 17 -21 35 7 19 20 19
36 0z m107 4 c19 -19 3 -39 -31 -39 -42 0 -50 9 -29 32 18 20 44 23 60 7z m88
-18 c0 -32 -16 -36 -45 -13 -28 23 -19 44 18 40 21 -2 27 -8 27 -27z m95 -5
c-13 -13 -35 7 -25 24 5 8 11 8 21 -1 10 -8 12 -15 4 -23z m101 18 c11 -14 11
-18 -4 -29 -23 -17 -57 -8 -57 15 0 30 40 39 61 14z m100 6 c26 -14 24 -26 -6
-46 -20 -13 -28 -14 -40 -4 -40 33 -1 75 46 50z m-3499 -25 c0 -5 -5 -11 -11
-13 -6 -2 -11 4 -11 13 0 9 5 15 11 13 6 -2 11 -8 11 -13z m1228 0 c0 -8 -4
-15 -9 -15 -13 0 -22 16 -14 24 11 11 23 6 23 -9z m-4358 -77 c-6 -6 -15 -9
-18 -5 -4 3 -4 14 0 23 5 13 9 15 18 6 9 -9 9 -15 0 -24z m198 2 c-20 -12 -33
-1 -19 16 9 11 15 12 23 4 8 -8 7 -13 -4 -20z m5360 -30 c0 -5 -7 -10 -15 -10
-8 0 -15 5 -15 10 0 6 7 10 15 10 8 0 15 -4 15 -10z m68 -18 c2 -7 -3 -12 -12
-12 -9 0 -16 7 -16 16 0 17 22 14 28 -4z m-1198 -2 c0 -5 -4 -10 -10 -10 -5 0
-10 5 -10 10 0 6 5 10 10 10 6 0 10 -4 10 -10z m1260 0 c0 -5 -2 -10 -4 -10
-3 0 -8 5 -11 10 -3 6 -1 10 4 10 6 0 11 -4 11 -10z m190 0 c0 -5 -4 -10 -10
-10 -5 0 -10 5 -10 10 0 6 5 10 10 10 6 0 10 -4 10 -10z m327 4 c-3 -3 -12 -4
-19 -1 -8 3 -5 6 6 6 11 1 17 -2 13 -5z m-2517 -99 c13 -16 6 -35 -14 -35 -22
0 -37 25 -24 38 16 16 23 15 38 -3z m95 -10 c0 -21 -25 -31 -52 -21 -14 6 -14
9 3 27 22 24 49 21 49 -6z m112 9 c7 -20 -22 -45 -43 -37 -8 3 -14 16 -14 29
0 19 5 24 25 24 15 0 28 -7 32 -16z m73 -10 c0 -17 -24 -29 -40 -19 -8 5 -6
13 6 26 18 20 34 17 34 -7z m105 12 c16 -12 17 -16 6 -30 -27 -33 -72 -10 -57
29 7 19 26 19 51 1z m109 -1 c29 -12 40 -13 55 -3 24 15 58 -7 42 -26 -8 -9
-109 -13 -151 -7 -18 3 -30 20 -24 34 8 21 31 21 78 2z m271 -16 c0 -17 -6
-24 -20 -24 -23 0 -33 34 -13 46 20 13 33 5 33 -22z m199 14 c9 -24 -9 -39
-29 -23 -12 10 -13 16 -4 26 15 19 25 18 33 -3z m89 5 c6 -18 -11 -48 -28 -48
-20 0 -24 23 -7 43 18 20 29 22 35 5z m93 -2 c18 -14 18 -16 2 -32 -11 -11
-24 -15 -42 -10 -28 7 -33 25 -14 44 16 16 30 15 54 -2z m104 -1 c10 -12 10
-19 2 -27 -16 -16 -42 -2 -42 22 0 24 22 26 40 5z m482 -2 c17 -15 17 -18 2
-34 -13 -14 -21 -16 -35 -8 -22 11 -24 30 -7 47 15 15 18 15 40 -5z m171 5 c6
-19 -3 -38 -18 -38 -7 0 -15 6 -18 13 -6 18 3 37 18 37 7 0 15 -6 18 -12z m97
-19 c0 -20 -24 -26 -35 -9 -8 13 14 42 26 34 5 -3 9 -14 9 -25z m105 6 c0 -22
-31 -33 -47 -17 -17 17 -1 44 24 40 15 -2 23 -10 23 -23z m215 -3 c0 -13 -39
-32 -54 -26 -25 10 -27 34 -3 43 21 8 57 -2 57 -17z m91 12 c23 -12 34 -13 44
-4 16 13 38 4 32 -13 -6 -19 -124 -24 -141 -7 -8 8 -6 15 8 26 24 17 21 17 57
-2z m437 -10 c4 -26 -22 -38 -49 -24 -22 12 -24 21 -7 38 19 19 53 10 56 -14z
m121 17 c26 -17 4 -41 -37 -41 -48 0 -57 8 -35 32 17 19 49 23 72 9z m-3542
-12 c8 -8 17 -8 33 1 15 8 25 9 32 2 17 -17 -2 -34 -32 -29 -15 3 -32 1 -38
-5 -7 -7 -13 -4 -21 10 -15 28 4 43 26 21z m233 -3 c0 -8 -5 -18 -10 -21 -17
-11 -40 3 -34 20 8 19 44 20 44 1z m75 4 c4 -6 1 -18 -6 -26 -11 -13 -14 -13
-27 0 -8 8 -11 19 -8 25 9 14 33 14 41 1z m183 -2 c8 -8 9 -15 1 -25 -22 -26
-53 -8 -41 25 5 15 24 16 40 0z m960 0 c8 -8 9 -15 1 -25 -23 -27 -59 -10 -59
28 0 13 44 11 58 -3z m550 -12 c-2 -15 -9 -20 -23 -18 -11 2 -32 4 -47 3 -28
0 -43 12 -34 27 3 5 28 9 56 9 47 1 51 -1 48 -21z m110 1 c4 -21 -25 -34 -40
-19 -8 8 -8 16 2 27 16 19 34 15 38 -8z m285 9 c7 -19 -1 -26 -30 -26 -22 0
-31 19 -16 33 11 12 41 7 46 -7z m377 0 c0 -15 -21 -26 -51 -26 -21 0 -26 25
-6 33 25 11 57 7 57 -7z m476 3 c3 -6 1 -15 -6 -19 -17 -11 -50 0 -50 16 0 17
46 19 56 3z m384 -4 c0 -8 -7 -15 -15 -15 -16 0 -20 12 -8 23 11 12 23 8 23
-8z m-6602 -42 c2 -8 -5 -13 -17 -13 -21 0 -35 13 -24 24 10 10 36 3 41 -11z
m-168 -2 c0 -16 -28 -20 -40 -5 -10 12 -8 14 14 14 14 0 26 -4 26 -9z m220 -1
c0 -5 -7 -10 -15 -10 -8 0 -15 5 -15 10 0 6 7 10 15 10 8 0 15 -4 15 -10z
m6520 -189 c0 -13 -26 -32 -33 -24 -8 7 11 33 24 33 5 0 9 -4 9 -9z m-708 -23
c-9 -9 -42 -1 -42 12 0 4 12 5 26 2 15 -3 22 -8 16 -14z m634 11 c3 -6 0 -15
-7 -20 -21 -14 -53 -6 -57 14 -3 13 3 17 27 17 16 0 33 -5 37 -11z m-3321 -9
c-3 -5 -10 -10 -16 -10 -5 0 -9 5 -9 10 0 6 7 10 16 10 8 0 12 -4 9 -10z m975
0 c0 -5 -4 -10 -10 -10 -5 0 -10 5 -10 10 0 6 5 10 10 10 6 0 10 -4 10 -10z
m410 6 c0 -9 -30 -14 -35 -6 -4 6 3 10 14 10 12 0 21 -2 21 -4z m810 -6 c0 -5
-4 -10 -10 -10 -5 0 -10 5 -10 10 0 6 5 10 10 10 6 0 10 -4 10 -10z m-2200
-95 c15 -18 34 -19 60 -3 15 9 22 10 31 1 15 -15 1 -36 -21 -30 -10 3 -40 1
-67 -4 -56 -11 -93 -5 -93 16 0 31 68 47 90 20z m708 -7 c-3 -23 -48 -41 -48
-20 0 24 14 42 32 42 14 0 19 -6 16 -22z m221 1 c11 -18 11 -23 -1 -30 -18
-12 -24 -11 -38 6 -14 17 -7 45 12 45 7 0 19 -10 27 -21z m-1044 -14 c0 -15
-8 -21 -29 -23 -37 -4 -54 11 -36 33 19 23 65 16 65 -10z m310 0 c0 -13 -8
-21 -24 -23 -28 -4 -46 11 -37 33 9 25 61 16 61 -10z m85 -1 c0 -8 -4 -14 -9
-14 -11 0 -22 26 -14 34 9 9 23 -3 23 -20z m95 16 c17 -27 -33 -50 -64 -31
-12 8 -12 12 -2 25 15 18 56 21 66 6z m75 -5 c10 -12 9 -16 -5 -21 -19 -8 -40
9 -31 25 10 15 21 14 36 -4z m371 5 c26 -15 24 -28 -6 -36 -27 -7 -55 10 -55
32 0 16 33 18 61 4z m288 -4 c9 -11 8 -18 -4 -30 -20 -20 -25 -20 -53 -1 -15
11 -32 14 -57 9 -27 -5 -35 -3 -35 8 0 24 11 28 75 28 41 0 66 -5 74 -14z
m151 -6 c0 -13 -7 -20 -20 -20 -22 0 -28 25 -7 33 22 10 27 7 27 -13z m-4324
1 c-3 -5 -15 -7 -26 -4 -28 7 -25 13 6 13 14 0 23 -4 20 -9z m487 2 c-7 -2
-19 -2 -25 0 -7 3 -2 5 12 5 14 0 19 -2 13 -5z m513 -2 c-3 -5 -15 -7 -26 -4
-28 7 -25 13 6 13 14 0 23 -4 20 -9z m3234 -16 c0 -8 -4 -15 -9 -15 -13 0 -22
16 -14 24 11 11 23 6 23 -9z m-4385 -85 c-3 -5 -15 -10 -26 -10 -10 0 -19 5
-19 10 0 6 12 10 26 10 14 0 23 -4 19 -10z m145 0 c0 -5 -9 -10 -20 -10 -11 0
-20 5 -20 10 0 6 9 10 20 10 11 0 20 -4 20 -10z m-140 -106 c0 -2 -9 -4 -20
-4 -11 0 -20 4 -20 9 0 5 9 7 20 4 11 -3 20 -7 20 -9z m-330 2 c0 -3 -4 -8
-10 -11 -5 -3 -10 -1 -10 4 0 6 5 11 10 11 6 0 10 -2 10 -4z"/>
<path d="M2230 2561 l-85 -27 85 -17 c115 -23 110 -24 110 28 0 30 -4 45 -12
44 -7 -1 -51 -13 -98 -28z"/>
<path d="M2422 2533 l3 -58 48 -9 c37 -6 75 -3 163 14 63 13 113 25 111 27 -6
5 -299 83 -315 83 -10 0 -12 -15 -10 -57z"/>
<path d="M2010 2126 l0 -346 165 0 165 0 0 214 c0 162 -3 216 -12 220 -10 5
-10 7 0 12 8 4 12 33 12 92 l0 87 -143 29 c-78 16 -152 31 -164 34 l-23 4 0
-346z"/>
<path d="M2895 2445 c-5 -2 -81 -18 -167 -36 l-158 -32 0 -297 0 -297 77 -7
c42 -3 118 -6 170 -6 l93 0 -1 340 c-1 187 -2 340 -3 339 0 0 -5 -2 -11 -4z
m-155 -225 c0 -5 -5 -10 -11 -10 -5 0 -7 5 -4 10 3 6 8 10 11 10 2 0 4 -4 4
-10z"/>
<path d="M2422 2086 l0 -306 29 0 29 0 0 300 c0 252 -2 300 -14 300 -8 0 -21
3 -30 6 -13 5 -15 -29 -14 -300z"/>
<path d="M3300 2282 c-75 -37 -118 -151 -106 -280 16 -179 145 -270 274 -192
65 40 101 169 82 292 -6 38 -17 82 -24 96 -16 31 -61 74 -93 91 -32 16 -93 13
-133 -7z m190 -62 c0 -5 -4 -10 -10 -10 -5 0 -10 5 -10 10 0 6 5 10 10 10 6 0
10 -4 10 -10z"/>
<path d="M4053 2281 c-49 -23 -103 -98 -103 -143 l0 -28 185 0 185 0 0 23 c-1
39 -37 103 -75 133 -49 37 -131 44 -192 15z"/>
<path d="M5679 2030 c-9 -5 -67 -18 -130 -30 -139 -24 -166 -35 -184 -71 -24
-45 -19 -77 19 -115 31 -31 39 -34 95 -34 94 0 163 36 197 103 13 25 32 157
23 157 -2 0 -11 -5 -20 -10z"/>
</g>
</svg>
